<svg xmlns="http://www.w3.org/2000/svg" viewBox="0 0 100 125" x="0px" y="0px"><title>News Icon Set</title><g data-name="Layer 31"><path d="M86,61.71,74.59,50.29H44v-32H86ZM46,48.29H75.41L84,56.88V20.29H46Z"/><rect x="14" y="19.42" width="2" height="9.88"/><rect x="24" y="19.42" width="2" height="9.88"/><rect x="34" y="19.42" width="2" height="9.88"/><rect x="64" y="69.29" width="2" height="10"/><rect x="74" y="69.29" width="2" height="10"/><rect x="84" y="69.29" width="2" height="10"/><path d="M31.41,47.7a4.83,4.83,0,0,1,3.72-1.46,4.88,4.88,0,0,1,3.5,1.25,4.21,4.21,0,0,1,1.32,3.19,3.41,3.41,0,0,1-.48,1.91,15.17,15.17,0,0,1-1.95,2.15,6.24,6.24,0,0,0-1.38,1.75,5.46,5.46,0,0,0-.32,2.12h-2A7.2,7.2,0,0,1,34.22,56a6.89,6.89,0,0,1,1.65-2.23l.89-.88a3.66,3.66,0,0,0,.64-.79,2.82,2.82,0,0,0,.44-1.5,2.9,2.9,0,0,0-.65-1.89,2.62,2.62,0,0,0-2.15-.8,2.63,2.63,0,0,0-2.57,1.38A5.34,5.34,0,0,0,32,51.56h-2A5.45,5.45,0,0,1,31.41,47.7Zm2.39,12.76H36v2.31H33.79Z"/><rect x="55" y="25.29" width="20" height="2"/><rect x="55" y="33.33" width="20" height="2"/><rect x="55" y="41.38" width="20" height="2"/><polygon points="54 50.29 54 68.29 24.59 68.29 16 76.88 16 40.29 44 40.29 44 38.29 14 38.29 14 81.71 25.41 70.29 56 70.29 56 50.29 54 50.29"/></g><text x="0" y="115" fill="#000000" font-size="5px" font-weight="bold" font-family="'Helvetica Neue', Helvetica, Arial-Unicode, Arial, Sans-serif">Created by Nurfajri Aldi</text><text x="0" y="120" fill="#000000" font-size="5px" font-weight="bold" font-family="'Helvetica Neue', Helvetica, Arial-Unicode, Arial, Sans-serif">from the Noun Project</text></svg>