<svg xmlns="http://www.w3.org/2000/svg" xmlns:xlink="http://www.w3.org/1999/xlink" viewBox="0 0 100 125" version="1.1" x="0px" y="0px"><title>iPhone 3.4</title><desc>Created with Sketch.</desc><g stroke="none" stroke-width="1" fill="none" fill-rule="evenodd"><g fill-rule="nonzero" fill="#000000"><path d="M26,7.0089921 L26,92.9910079 C26,95.2061622 27.7952903,97 30.0098932,97 L69.9901068,97 C72.2059475,97 74,95.2051131 74,92.9910079 L74,7.0089921 C74,4.79383779 72.2106419,3 70.0033569,3 L60.8261337,3 C60.6062971,3 60.3347895,3.14686491 60.2114417,3.32803195 L58.571167,5.73718544 C58.4484843,5.91737559 58.170425,6.06521739 57.9515896,6.06521739 L42.0484104,6.06521739 C41.8396739,6.06521739 41.5521808,5.91835248 41.428833,5.73718544 L39.7885583,3.32803195 C39.6658756,3.14784181 39.3900035,3 39.1738663,3 L29.9966431,3 C27.7873646,3 26,4.7948869 26,7.0089921 Z M70.0033569,1 C73.3168751,1 76,3.69092883 76,7.0089921 L76,92.9910079 C76,96.3101153 73.3100844,99 69.9901068,99 L30.0098932,99 C26.6905399,99 24,96.310551 24,92.9910079 L24,7.0089921 C24,3.69115914 26.6819451,1 29.9966431,1 L70.0033569,1 Z"/></g></g><text x="0" y="115" fill="#000000" font-size="5px" font-weight="bold" font-family="'Helvetica Neue', Helvetica, Arial-Unicode, Arial, Sans-serif">Created by Landan Lloyd</text><text x="0" y="120" fill="#000000" font-size="5px" font-weight="bold" font-family="'Helvetica Neue', Helvetica, Arial-Unicode, Arial, Sans-serif">from the Noun Project</text></svg>