<svg xmlns="http://www.w3.org/2000/svg" data-name="Layer 5" viewBox="0 0 128 160" x="0px" y="0px"><title>Empathy, mental health, healthcare, treatment, management, healp, mind, happy</title><path d="M97.488,122.1H58.919a3.612,3.612,0,0,1-3.568-2.993c-1.367-7.813-3.07-13.46-4.445-14.74-2.327-2.162-7.728-1.593-12.069-1.136-1.453.153-2.826.3-4.052.347C24.34,104.12,23.69,97.346,23.09,90.8a40.266,40.266,0,0,0-1.2-7.628,9.278,9.278,0,0,0-4.571-5.728c-1.741-1.147-3.714-2.448-3.543-5.722.082-1.575,1.344-2.972,2.942-4.74,2.5-2.766,5.923-6.555,5.936-12.561.007-1.55-.154-3.616-.309-5.613-.125-1.611-.243-3.131-.283-4.437A34.061,34.061,0,0,1,32.6,18.8C41.671,9.913,55.059,5.242,69.331,5.979c24.7,1.268,40.871,15.213,44.358,38.262,2.108,13.933-1.841,26.168-13.206,40.911-2.532,3.286-3.643,9.058-3.405,12.822.432,6.8,2.624,15.132,3.893,19.5a3.619,3.619,0,0,1-3.483,4.627Zm-52.595-21.8c3.035,0,5.837.493,7.716,2.24,2.351,2.186,4.127,9.984,5.2,16.139a1.118,1.118,0,0,0,1.106.924H97.488a1.118,1.118,0,0,0,.9-.451,1.1,1.1,0,0,0,.178-.979c-1.3-4.462-3.54-13-3.986-20.035-.275-4.324.983-10.7,3.919-14.505,11.054-14.34,14.737-25.643,12.714-39.013C107.925,22.85,92.61,9.677,69.2,8.475c-13.569-.693-26.28,3.712-34.853,12.111a31.18,31.18,0,0,0-9.791,23.7c.039,1.248.155,2.74.278,4.32.159,2.048.323,4.166.316,5.816-.016,6.963-3.967,11.336-6.582,14.229-1.112,1.232-2.263,2.506-2.3,3.195-.093,1.773.63,2.323,2.422,3.5a11.787,11.787,0,0,1,5.593,7.112,42.542,42.542,0,0,1,1.293,8.1c.626,6.815,1.016,10.93,9.092,10.51,1.159-.047,2.492-.187,3.9-.336A61.177,61.177,0,0,1,44.893,100.294Z"/><path d="M29.6,59.827a3.885,3.885,0,0,1-2.024-.553,1.25,1.25,0,0,1,1.283-2.146c1.21.725,3.015-.782,3.034-.8a1.25,1.25,0,0,1,1.646,1.881A6.4,6.4,0,0,1,29.6,59.827Z"/><path d="M24.24,85.4a7.955,7.955,0,0,1-1-.052,1.25,1.25,0,0,1,.34-2.477,13.039,13.039,0,0,0,6.367-1.313,1.25,1.25,0,1,1,1.037,2.275A16.476,16.476,0,0,1,24.24,85.4Z"/><path d="M51.652,44.669a8.853,8.853,0,1,1,8.853-8.853A8.863,8.863,0,0,1,51.652,44.669Zm0-15.2a6.353,6.353,0,1,0,6.353,6.352A6.359,6.359,0,0,0,51.652,29.464Z"/><path d="M51.549,52.279a4.318,4.318,0,0,1-4.131-2.943,1.888,1.888,0,0,0-2.544-1.084,4.278,4.278,0,0,1-4.181-.264A4.426,4.426,0,0,1,38.641,44.3a4.338,4.338,0,0,1,.456-1.926,1.83,1.83,0,0,0,.192-.815,1.873,1.873,0,0,0-1.23-1.75,4.365,4.365,0,0,1,.074-8.228h0a1.87,1.87,0,0,0,1.259-1.768,1.826,1.826,0,0,0-.175-.782,4.275,4.275,0,0,1,.261-4.179,4.415,4.415,0,0,1,5.606-1.592,1.83,1.83,0,0,0,.808.183,1.857,1.857,0,0,0,1.765-1.227,4.371,4.371,0,0,1,8.229.068,1.861,1.861,0,0,0,2.55,1.088,4.263,4.263,0,0,1,4.171.259,4.429,4.429,0,0,1,2.057,3.691,4.332,4.332,0,0,1-.458,1.928,1.8,1.8,0,0,0-.182.806,1.874,1.874,0,0,0,1.228,1.756,4.376,4.376,0,0,1-.069,8.237,1.863,1.863,0,0,0-1.272,1.768,1.82,1.82,0,0,0,.176.775,4.284,4.284,0,0,1-.263,4.185,4.413,4.413,0,0,1-5.605,1.594,1.9,1.9,0,0,0-2.567,1.039A4.33,4.33,0,0,1,51.549,52.279Zm-5.9-6.7a4.371,4.371,0,0,1,4.131,2.945,1.872,1.872,0,0,0,3.526.029,4.353,4.353,0,0,1,6.012-2.423,1.851,1.851,0,0,0,2.4-.693,1.807,1.807,0,0,0,.1-1.783,4.3,4.3,0,0,1-.411-1.833,4.357,4.357,0,0,1,2.96-4.133,1.876,1.876,0,0,0,.023-3.524,4.381,4.381,0,0,1-2.87-4.1,4.313,4.313,0,0,1,.438-1.908,1.852,1.852,0,0,0,.2-.826,1.911,1.911,0,0,0-.9-1.582,1.786,1.786,0,0,0-1.768-.1A4.362,4.362,0,0,1,53.524,23.1a1.87,1.87,0,0,0-3.517-.028,4.382,4.382,0,0,1-6.022,2.431,1.849,1.849,0,0,0-2.4.691,1.8,1.8,0,0,0-.1,1.777,4.29,4.29,0,0,1,.411,1.84,4.371,4.371,0,0,1-2.945,4.131,1.865,1.865,0,0,0-.032,3.516,4.352,4.352,0,0,1,2.425,6.016,1.855,1.855,0,0,0-.2.824,1.905,1.905,0,0,0,.9,1.58,1.8,1.8,0,0,0,1.78.1A4.371,4.371,0,0,1,45.65,45.576Z"/><path d="M66.983,65.766A6.41,6.41,0,1,1,73.4,59.36,6.416,6.416,0,0,1,66.983,65.766Zm0-10.319A3.91,3.91,0,1,0,70.9,59.36,3.918,3.918,0,0,0,66.983,55.447Z"/><path d="M67.252,70.929A3.346,3.346,0,0,1,64.126,68.8a.855.855,0,0,0-1.218-.448,3.318,3.318,0,0,1-3.269-.112A3.4,3.4,0,0,1,58,65.363,3.353,3.353,0,0,1,58.29,64a.878.878,0,0,0-.53-1.166,3.361,3.361,0,0,1-.226-6.332.9.9,0,0,0,.563-.819A.828.828,0,0,0,58,55.3a3.324,3.324,0,0,1,.1-3.284,3.438,3.438,0,0,1,4.237-1.347.872.872,0,0,0,1.164-.534,3.368,3.368,0,0,1,6.344-.216.878.878,0,0,0,1.217.447,3.322,3.322,0,0,1,3.27.112,3.4,3.4,0,0,1,1.637,2.874,3.353,3.353,0,0,1-.288,1.361.846.846,0,0,0-.067.343.856.856,0,0,0,.594.822,3.366,3.366,0,0,1,.223,6.343.878.878,0,0,0-.558.808.8.8,0,0,0,.1.387,3.327,3.327,0,0,1-.1,3.287,3.406,3.406,0,0,1-4.218,1.361.841.841,0,0,0-1.182.52A3.319,3.319,0,0,1,67.252,70.929Zm-3.936-5.182a3.344,3.344,0,0,1,3.136,2.136.83.83,0,0,0,.8.546.844.844,0,0,0,.832-.6,3.351,3.351,0,0,1,4.555-2.062.866.866,0,0,0,1.092-.365.806.806,0,0,0,.021-.831,3.285,3.285,0,0,1-.382-1.543,3.394,3.394,0,0,1,2.144-3.135.866.866,0,0,0-.063-1.632A3.375,3.375,0,0,1,73.39,53.7a.852.852,0,0,0,.076-.354.881.881,0,0,0-.437-.739.814.814,0,0,0-.836-.019,3.4,3.4,0,0,1-1.543.373,3.345,3.345,0,0,1-3.135-2.134.83.83,0,0,0-.8-.547.846.846,0,0,0-.834.6,3.345,3.345,0,0,1-3.214,2.349,3.311,3.311,0,0,1-1.341-.278.87.87,0,0,0-1.095.358.808.808,0,0,0-.017.829,3.285,3.285,0,0,1,.382,1.543,3.373,3.373,0,0,1-2.133,3.14l-.009,0a.84.84,0,0,0-.547.833.824.824,0,0,0,.6.789,3.378,3.378,0,0,1,2.069,4.556.838.838,0,0,0-.077.356.882.882,0,0,0,.436.739.818.818,0,0,0,.835.019A3.394,3.394,0,0,1,63.316,65.747ZM58,57.665h0Z"/><path d="M84.01,44.669a8.853,8.853,0,1,1,8.852-8.853A8.864,8.864,0,0,1,84.01,44.669Zm0-15.2a6.353,6.353,0,1,0,6.352,6.352A6.359,6.359,0,0,0,84.01,29.464Z"/><path d="M88.516,51.406a4.294,4.294,0,0,1-3.233-1.473,1.927,1.927,0,0,0-2.784-.028,4.283,4.283,0,0,1-4.8,1.115,4.333,4.333,0,0,1-2.789-4.055c0-.027.011-.277.011-.277a1.862,1.862,0,0,0-1.857-1.976h-.138a4.326,4.326,0,0,1-3.147-1.194,4.465,4.465,0,0,1-1.364-3.2A4.27,4.27,0,0,1,69.9,37.076a1.845,1.845,0,0,0,.623-1.4,1.818,1.818,0,0,0-.594-1.367,4.373,4.373,0,0,1,2.934-7.6c.028,0,.278.011.278.011a1.821,1.821,0,0,0,1.386-.5,1.843,1.843,0,0,0,.589-1.357v-.138a4.252,4.252,0,0,1,1.18-3.135,4.463,4.463,0,0,1,3.21-1.367,4.283,4.283,0,0,1,3.246,1.478,1.921,1.921,0,0,0,2.772.014,4.366,4.366,0,0,1,7.572,3.223,1.868,1.868,0,0,0,1.865,1.97H95.1a4.282,4.282,0,0,1,3.14,1.192A4.453,4.453,0,0,1,99.6,31.3a4.287,4.287,0,0,1-1.477,3.246,1.845,1.845,0,0,0-.625,1.4,1.82,1.82,0,0,0,.6,1.367,4.377,4.377,0,0,1-2.944,7.6c-.027,0-.277-.012-.277-.012a1.86,1.86,0,0,0-1.967,1.85V46.9a4.288,4.288,0,0,1-1.194,3.146A4.465,4.465,0,0,1,88.516,51.406Zm-4.636-4.6a4.376,4.376,0,0,1,3.269,1.465,1.793,1.793,0,0,0,1.367.636,1.979,1.979,0,0,0,1.4-.595,1.815,1.815,0,0,0,.5-1.366v-.2a4.358,4.358,0,0,1,4.623-4.344.7.7,0,0,1,.11,0h0a1.874,1.874,0,0,0,1.26-3.254,4.363,4.363,0,0,1,.056-6.478A1.8,1.8,0,0,0,97.1,31.3a1.972,1.972,0,0,0-.594-1.4,1.8,1.8,0,0,0-1.359-.495h-.188a4.394,4.394,0,0,1-3.179-1.371A4.322,4.322,0,0,1,90.6,24.8V24.79a1.866,1.866,0,0,0-3.236-1.379,4.366,4.366,0,0,1-6.484-.05,1.79,1.79,0,0,0-1.374-.634,1.975,1.975,0,0,0-1.4.595,1.785,1.785,0,0,0-.488,1.352v.193a4.379,4.379,0,0,1-1.377,3.179,4.3,4.3,0,0,1-3.255,1.174c.015,0-.045,0-.11,0h0a1.871,1.871,0,0,0-1.253,3.252,4.377,4.377,0,0,1-.059,6.48,1.776,1.776,0,0,0-.637,1.366,1.981,1.981,0,0,0,.6,1.4,1.752,1.752,0,0,0,1.364.5h.188a4.377,4.377,0,0,1,3.179,1.378,4.314,4.314,0,0,1,1.174,3.253v0s0,.057,0,.113a1.867,1.867,0,0,0,3.242,1.258A4.333,4.333,0,0,1,83.88,46.805Z"/><path d="M67.634,75.045a9.781,9.781,0,0,1-3.562-.674c-16.719-6.462-27.913-16.477-31.512-28.2a24.88,24.88,0,0,1,3.3-21.9C39.9,18.439,48.4,14.538,56.13,15.012c4.938.3,8.949,2.354,11.5,5.846,2.554-3.492,6.564-5.547,11.5-5.846,7.7-.474,16.23,3.426,20.27,9.258a24.877,24.877,0,0,1,3.3,21.9c-3.6,11.723-14.793,21.738-31.518,28.2A9.737,9.737,0,0,1,67.634,75.045ZM54.892,17.475c-6.507,0-13.648,3.41-16.979,8.218a22.434,22.434,0,0,0-2.964,19.744c3.37,10.974,14.034,20.422,30.029,26.6a7.249,7.249,0,0,0,5.3,0c16-6.184,26.663-15.632,30.033-26.606a22.434,22.434,0,0,0-2.963-19.744c-3.519-5.077-11.291-8.591-18.066-8.186-3.408.207-8,1.466-10.548,6.291a1.25,1.25,0,0,1-2.211,0c-2.543-4.825-7.139-6.084-10.548-6.291C55.619,17.485,55.256,17.475,54.892,17.475Z"/><text x="0" y="143" fill="#000000" font-size="5px" font-weight="bold" font-family="'Helvetica Neue', Helvetica, Arial-Unicode, Arial, Sans-serif">Created by Victoruler</text><text x="0" y="148" fill="#000000" font-size="5px" font-weight="bold" font-family="'Helvetica Neue', Helvetica, Arial-Unicode, Arial, Sans-serif">from the Noun Project</text></svg>