<svg xmlns="http://www.w3.org/2000/svg" viewBox="0 0 100 125" x="0px" y="0px"><defs><style>.cls-1{fill:none;}</style></defs><title>user research_1</title><g><path d="M52.34375,67.1875a23.413,23.413,0,0,1-17.43393-7.78122A9.35084,9.35084,0,0,1,22.72568,54.67a17.967,17.967,0,1,1,6.49948-34.96246A23.433,23.433,0,0,1,73.98987,32.15332a15.62132,15.62132,0,0,1,8.77228,7.82394,10.014,10.014,0,0,1,1.61285-.13351,10.15626,10.15626,0,1,1-5.34744,18.78357A15.54532,15.54532,0,0,1,68.75,62.5a15.0299,15.0299,0,0,1-2.13776-.16327A23.18091,23.18091,0,0,1,52.34375,67.1875ZM35.112,57.66983a.78116.78116,0,0,1,.59433.2739A21.85372,21.85372,0,0,0,65.9111,60.90164a.78137.78137,0,0,1,.60883-.15869,13.80982,13.80982,0,0,0,11.89422-3.67126.78.78,0,0,1,.9903-.07019A8.59071,8.59071,0,1,0,84.375,41.40625a8.61963,8.61963,0,0,0-1.89056.21591.77985.77985,0,0,1-.88578-.44479,14.06,14.06,0,0,0-8.71124-7.74384.78194.78194,0,0,1-.54092-.87661,21.87308,21.87308,0,0,0-41.954-11.57456.781.781,0,0,1-1.0109.44479,16.40478,16.40478,0,1,0-6.12411,31.69327.78168.78168,0,0,1,.71945.49668,7.79041,7.79041,0,0,0,10.78338,4.13665A.7795.7795,0,0,1,35.112,57.66983Z"/><path d="M43.75,33.59375a7.03125,7.03125,0,1,1,7.03125-7.03125A7.03894,7.03894,0,0,1,43.75,33.59375Zm0-12.5a5.46875,5.46875,0,1,0,5.46875,5.46875A5.47538,5.47538,0,0,0,43.75,21.09375Z"/><path d="M73.4375,53.90625A3.90625,3.90625,0,1,1,77.34375,50,3.91085,3.91085,0,0,1,73.4375,53.90625Zm0-6.25A2.34375,2.34375,0,1,0,75.78125,50,2.34631,2.34631,0,0,0,73.4375,47.65625Z"/><path d="M32.03125,43.75h-12.5a.78081.78081,0,0,1-.78125-.78125v-12.5a.78081.78081,0,0,1,.78125-.78125h12.5a.78081.78081,0,0,1,.78125.78125v12.5A.78081.78081,0,0,1,32.03125,43.75ZM20.3125,42.1875H31.25V31.25H20.3125Z"/><path d="M63.28125,50H49.21875a.78084.78084,0,0,1-.68054-1.16425l7.03125-12.5a.81266.81266,0,0,1,1.36108,0l7.03125,12.5A.78084.78084,0,0,1,63.28125,50ZM50.55466,48.4375H61.94534L56.25,38.31253Z"/><path d="M62.5,24.21875a.77872.77872,0,0,1-.55237-.22888l-5.46875-5.46875a.78117.78117,0,0,1,1.10474-1.10474l5.46875,5.46875A.78125.78125,0,0,1,62.5,24.21875Z"/><path d="M57.03125,24.21875a.78125.78125,0,0,1-.55237-1.33362l5.46875-5.46875a.78117.78117,0,0,1,1.10474,1.10474l-5.46875,5.46875A.77872.77872,0,0,1,57.03125,24.21875Z"/><path d="M39.0625,53.90625a.77872.77872,0,0,1-.55237-.22888l-5.46875-5.46875a.78117.78117,0,0,1,1.10474-1.10474l5.46875,5.46875a.78125.78125,0,0,1-.55237,1.33362Z"/><path d="M33.59375,53.90625a.78125.78125,0,0,1-.55237-1.33362l5.46875-5.46875a.78117.78117,0,0,1,1.10474,1.10474l-5.46875,5.46875A.77872.77872,0,0,1,33.59375,53.90625Z"/><path d="M73.95515,56.76207a6.47153,6.47153,0,0,1,6.51331,6.32444,6.2777,6.2777,0,0,1-1.85575,4.52276A6.53683,6.53683,0,0,1,74.015,69.531l-.06342.00029a6.47175,6.47175,0,0,1-6.51369-6.3245A6.27737,6.27737,0,0,1,69.29359,58.684a6.53664,6.53664,0,0,1,4.59776-1.92168l.0638-.00029m-.00038-1.5625-.078.00036a7.94753,7.94753,0,1,0,.07477,15.89382l.078-.00036A8.11731,8.11731,0,0,0,79.719,68.71271a7.8559,7.8559,0,0,0,2.3119-5.6412,8.0145,8.0145,0,0,0-8.0761-7.87194Z"/><path d="M57.04956,92.96875a.78117.78117,0,0,1-.78125-.77362A17.803,17.803,0,0,1,61.5242,79.3663a18.37531,18.37531,0,0,1,12.92114-5.40771c.05722-.00077.11444-.00077.17243-.00077a18.39841,18.39841,0,0,1,18.351,18.222.78129.78129,0,0,1-1.5625.01526A16.83525,16.83525,0,0,0,74.617,75.52032c-.05264,0-.10452,0-.15792.00077a16.82161,16.82161,0,0,0-11.82862,4.94842,16.24878,16.24878,0,0,0-4.79965,11.71036.78182.78182,0,0,1-.77362.78888Z"/><path d="M59.21144,61.84976a3.44009,3.44009,0,0,1,3.46785,3.35586,3.32508,3.32508,0,0,1-.98391,2.39535,3.50626,3.50626,0,0,1-2.48613,1.024,3.44014,3.44014,0,0,1-3.46813-3.35586,3.32486,3.32486,0,0,1,.98391-2.39532,3.48566,3.48566,0,0,1,2.452-1.02389l.03442-.00017m-.00028-1.5625-.04854.00023a4.95039,4.95039,0,1,0,.04663,9.9l.04854-.00022a5.05618,5.05618,0,0,0,3.54386-1.4829,4.89322,4.89322,0,0,0,1.44-3.51381,4.99213,4.99213,0,0,0-5.03054-4.90331Z"/><path d="M48.4375,84.375a.78116.78116,0,0,1-.78125-.77362,12.20018,12.20018,0,0,1,3.34549-8.40454,11.47727,11.47727,0,0,1,8.26874-3.68729c.03738,0,.07477-.00076.11139-.00076a11.77255,11.77255,0,0,1,8.95614,4.0947.78127.78127,0,0,1-1.18561,1.01776,10.21546,10.21546,0,0,0-7.77053-3.55c-.032,0-.06409.00076-.0969.00076a9.92511,9.92511,0,0,0-7.14721,3.19824,10.62059,10.62059,0,0,0-2.919,7.31583.78134.78134,0,0,1-.77362.78888Z"/><rect class="cls-1" width="100" height="100"/></g><text x="0" y="115" fill="#000000" font-size="5px" font-weight="bold" font-family="'Helvetica Neue', Helvetica, Arial-Unicode, Arial, Sans-serif">Created by Beautifulife Studio</text><text x="0" y="120" fill="#000000" font-size="5px" font-weight="bold" font-family="'Helvetica Neue', Helvetica, Arial-Unicode, Arial, Sans-serif">from the Noun Project</text></svg>