<svg xmlns="http://www.w3.org/2000/svg" xmlns:xlink="http://www.w3.org/1999/xlink" version="1.1" x="0px" y="0px" viewBox="0 0 100 125" style="enable-background:new 0 0 100 100;" xml:space="preserve"><path d="M32.70801,5.19908C39.25727,5.13272,45.80653,5.06636,52.35579,5c0,0.39816,0,0.79632,0,1.19449  c-0.32669,0.15824-0.6534,0.31649-0.98009,0.47473c-0.83716,0.84227-1.67432,1.68453-2.51149,2.5268  c-0.13783,0.58193-0.27565,1.16386-0.41348,1.74579c0.64829,0.61766,1.29658,1.23532,1.94487,1.85299  c0.28075,0.02042,0.56151,0.04084,0.84227,0.06126c0.68402,0.68913,1.36804,1.37825,2.05207,2.06738  c0.96478,0.13783,1.92955,0.27565,2.89433,0.41348c0.6585,1.30679,1.317,2.61358,1.9755,3.92037  c0.07657,0.70955,0.15314,1.41909,0.22971,2.12864c0.57172,0.45942,1.14344,0.91883,1.71516,1.37825  c-0.03573,0.19398-0.07146,0.38795-0.1072,0.58193c0.32159,0.29607,0.64318,0.59214,0.96478,0.88821  c0.08678,0.52067,0.17355,1.04135,0.26033,1.56202c0.28586,0.02552,0.57172,0.05105,0.85758,0.07657  c0.38285,0.4441,0.7657,0.88821,1.14854,1.33231c0.75038,0.38285,1.50077,0.7657,2.25115,1.14855  c0.37264,0.39816,0.74528,0.79632,1.11792,1.19449c0.22971,0.85248,0.45942,1.70495,0.68913,2.55743  c0.53088,0.28075,1.06177,0.56151,1.59265,0.84227c0.70955,0.69423,1.41909,1.38847,2.12863,2.0827  c0.18377,0.878,0.36754,1.756,0.55131,2.634c0.47473,0.22971,0.94946,0.45942,1.42419,0.68913  c0.17866,0.59724,0.35733,1.19449,0.53599,1.79173c0.28075,0,0.56151,0,0.84226,0c0.01532,0.33691,0.03063,0.67381,0.04594,1.01072  c1.34252,0.88311,2.68504,1.76621,4.02757,2.64931c0.04594,0.5513,0.09189,1.1026,0.13783,1.65391  c0.28076,0.66871,0.56151,1.33741,0.84227,2.00612c0.23482,0.50536,0.46962,1.01072,0.70444,1.51608  c0.01021,0.89842,0.02042,1.79683,0.03063,2.69525c0.56661,0.36243,1.13323,0.72486,1.69984,1.08729  c0.47473,0.4339,0.94946,0.86779,1.42419,1.30169c0.09189,0.47473,0.18377,0.94946,0.27565,1.4242  c0.23482,0.53088,0.46963,1.06176,0.70444,1.59265c0.21439,0,0.42879,0,0.64318,0c0.00486,1.19539,0.00971,2.39077,0.01456,3.58616  c0.34737,0.38195,0.69473,0.7639,1.0421,1.14585c0.25013-0.08167,0.50025-0.16335,0.75038-0.24502  c0.59724,0.44921,1.19449,0.89842,1.79173,1.34763c0.00163,0.12101,0.00324,0.24202,0.00487,0.36303  c0.30976,0.02192,0.61952,0.04384,0.92928,0.06576c-0.10209,0.25013-0.20419,0.50025-0.30628,0.75039  c-0.34027,0.23145-0.68053,0.4629-1.02081,0.69435c-0.12425-0.47137-0.2485-0.94274-0.37276-1.41411  c-0.16335,0.40837-0.32671,0.81674-0.49005,1.22511c0.17356,0.26544,0.34711,0.53088,0.52068,0.79633  c-0.29096,0.34201-0.58193,0.68402-0.87289,1.02603c-0.41557-0.20238-0.83115-0.40476-1.24673-0.60715  c-0.21716-0.19986-0.43431-0.39973-0.65147-0.59959c0.00385,0.12875,0.00768,0.25751,0.01153,0.38627  c0.03844,0.08263,0.07688,0.16528,0.11531,0.24791c-0.15482,0.14491-0.30964,0.28982-0.46446,0.43473  c-0.26034-0.30627-0.52068-0.61256-0.78101-0.91884c-0.03645,0.07617-0.07291,0.15234-0.10936,0.22851  c0.07944,0.09737,0.15886,0.19474,0.2383,0.29211c-0.13452,0.67645-0.26904,1.35291-0.40356,2.02937  c0.20895-0.06388,0.4179-0.12775,0.62685-0.19163c0.06637-0.30628,0.13272-0.61256,0.19908-0.91884  c0.31139-0.07146,0.62276-0.14294,0.93415-0.21439c0.19398,0.18887,0.38795,0.37774,0.58193,0.56661  c-0.4339,0.59214-0.86779,1.18428-1.30168,1.77642c-0.34711-0.1021-0.69424-0.20419-1.04135-0.30628  c-0.02042,0.31139-0.04083,0.62276-0.06126,0.93415c-0.45942,0.12762-0.91884,0.25523-1.37825,0.38285  c0-0.17356,0-0.34711,0-0.52068c-0.3318-0.17866-0.66361-0.35733-0.99541-0.53599c0.20419,0.39305,0.40837,0.78612,0.61256,1.17918  c0.34711,0.20928,0.69424,0.41858,1.04134,0.62787c-0.10209,0.46963-0.20419,0.93925-0.30627,1.40888  c-0.17356,0.1123-0.34711,0.2246-0.52068,0.33691c-0.01531-0.28586-0.03062-0.57172-0.04594-0.85758  c-0.2246,0.20929-0.44921,0.41859-0.67381,0.62787c0.15314,0.14803,0.30628,0.29607,0.45942,0.44411  c0.02042,0.34711,0.04083,0.69424,0.06126,1.04135c0.39816-0.30628,0.79633-0.61256,1.19449-0.91884  c0.29096,0.09188,0.58193,0.18377,0.87289,0.27565c-0.55641,0.76059-1.11281,1.52119-1.66922,2.28178  c-0.1174-0.28586-0.23482-0.57172-0.35222-0.85758c-0.07657,0.04594-0.15314,0.09189-0.22971,0.13783  c0.13783,0.64319,0.27565,1.28637,0.41348,1.92956c-0.53599-0.07657-1.07198-0.15314-1.60796-0.22971  c0.33312,0.21475,0.66624,0.42951,0.99937,0.64426c0.21307,0.505,0.42615,1.00999,0.63922,1.515  c-0.19398,0.15314-0.38795,0.30627-0.58193,0.45942c-0.84226,0.54109-1.68453,1.08218-2.52679,1.62328  c-0.16335,0.34711-0.32671,0.69423-0.49005,1.04134c0.13783,0.15314,0.27565,0.30628,0.41348,0.45942  c0.12762,0.20419,0.25523,0.40837,0.38284,0.61256c-0.28586,0.08168-0.57172,0.16335-0.85758,0.24503  c-0.56661-0.03062-1.13322-0.06126-1.69984-0.09188c0.56151,0.23481,1.12302,0.46962,1.68453,0.70444  c0.16263,0.48554,0.32526,0.97108,0.48788,1.45663c-0.00192,0.14989-0.00384,0.2998-0.00576,0.44969  c-0.31325-0.01537-0.62649-0.03075-0.93974-0.04612c0.19409,0.47083,0.38819,0.94165,0.58228,1.41248  c-0.04612,0.3267-0.09224,0.65339-0.13836,0.98009c-0.15879,0.16485-0.31757,0.3297-0.47636,0.49454  c-2.14395-0.7657-4.2879-1.53139-6.43185-2.29709c-0.19397,0.33691-0.38795,0.67381-0.58193,1.01072  c-0.26033-0.12251-0.52067-0.24503-0.78101-0.36754c-0.09189,0.59214-0.18377,1.18428-0.27565,1.77642  c0.18887,0.92394,0.37774,1.84788,0.56661,2.77182c-0.17866,1.2098-0.35733,2.4196-0.53599,3.6294  C69.13475,94.86728,68.42521,94.93364,67.71566,95c-0.2246-0.30117-0.44921-0.60235-0.67381-0.90352  c-0.01531-1.04135-0.03062-2.0827-0.04594-3.12405c-14.3951-0.92905-28.7902-1.85809-43.1853-2.78714  c-0.27127-0.23736-0.54253-0.47471-0.8138-0.71207c-0.14499-0.95152-0.28998-1.90306-0.43497-2.85459  c-0.41069-0.83765-0.82139-1.67531-1.23208-2.51297c-0.11741-0.53088-0.23481-1.06177-0.35222-1.59265  c-0.37774-0.46452-0.75549-0.92904-1.13323-1.39357c0.36243-2.59316,0.72486-5.18632,1.08729-7.77948  c-0.50025-0.64318-1.00051-1.28637-1.50076-1.92955c-0.09188-0.98009-0.18377-1.96018-0.27565-2.94028  c0.49515-1.01072,0.9903-2.02144,1.48545-3.03216c-0.00511-0.77591-0.01021-1.55181-0.01531-2.32772  c0.7708-0.60235,1.5416-1.2047,2.3124-1.80704c-0.3954-0.80552-0.7908-1.61102-1.1862-2.41654  c0.12299-0.53809,0.24599-1.07618,0.36898-1.61427c-0.69237-1.25466-1.38474-2.50932-2.07711-3.76398  c-0.27235-0.79008-0.54469-1.58016-0.81704-2.37024c0.0884-0.21139,0.1768-0.42279,0.2652-0.63418  c-0.2037-0.30363-0.40741-0.60728-0.61112-0.91091c-0.21391-1.04026-0.42782-2.08053-0.64173-3.12079  c-0.20296-1.21779-0.40593-2.43557-0.60889-3.65336c-1.92505-11.83399-5.77797-35.51931-5.77938-35.52798  C11.85043,5.29096,11.85043,5.29096,32.70801,5.19908z"/><polygon points="78.84889,81.2634 79.62991,81.95253 80.01276,81.84533 80.18121,80.97243 "/><polygon points="83.10617,70.42113 84.33128,71.53905 84.53036,69.57887 83.81827,70.22205 "/><path d="M79.89595,83.21463c-0.16911,0.33823-0.33823,0.67645-0.50735,1.01469  c-0.11787,0.34079-0.23573,0.68158-0.3536,1.02237c0.01025,0.1768,0.02049,0.3536,0.03075,0.53041  c0.26905,0.13324,0.53809,0.26647,0.80714,0.39972c0.04356-0.42535,0.08712-0.8507,0.13068-1.27604  c0.08968-0.36898,0.17937-0.73795,0.26905-1.10693L79.89595,83.21463z"/><text x="0" y="115" fill="#000000" font-size="5px" font-weight="bold" font-family="'Helvetica Neue', Helvetica, Arial-Unicode, Arial, Sans-serif">Created by Marvdrock</text><text x="0" y="120" fill="#000000" font-size="5px" font-weight="bold" font-family="'Helvetica Neue', Helvetica, Arial-Unicode, Arial, Sans-serif">from the Noun Project</text></svg>