<svg xmlns="http://www.w3.org/2000/svg" xmlns:xlink="http://www.w3.org/1999/xlink" version="1.1" x="0px" y="0px" viewBox="0 0 32 40" enable-background="new 0 0 32 32" xml:space="preserve"><path d="M25.516,5.015H6.484c-2.398,0-4.35,1.952-4.35,4.35v13.271c0,2.398,1.952,4.35,4.35,4.35h19.031  c2.398,0,4.35-1.952,4.35-4.35V9.365C29.866,6.966,27.914,5.015,25.516,5.015z M28.125,22.635c0,0.511-0.153,0.984-0.407,1.387  l-5.955-6.58l6.362-3.022V22.635z M6.484,6.754h19.031c1.439,0,2.61,1.171,2.61,2.61v3.129L16,18.253l-12.125-5.76V9.365  C3.875,7.925,5.045,6.754,6.484,6.754z M4.282,24.022c-0.254-0.403-0.407-0.876-0.407-1.387V14.42l6.362,3.022L4.282,24.022z   M6.484,25.246c-0.292,0-0.567-0.059-0.829-0.148l6.223-6.876l3.749,1.781c0.118,0.056,0.246,0.084,0.374,0.084  s0.255-0.028,0.374-0.084l3.749-1.781l6.223,6.876c-0.262,0.089-0.538,0.148-0.829,0.148H6.484z"/><text x="0" y="47" fill="#000000" font-size="5px" font-weight="bold" font-family="'Helvetica Neue', Helvetica, Arial-Unicode, Arial, Sans-serif">Created by An Chi</text><text x="0" y="52" fill="#000000" font-size="5px" font-weight="bold" font-family="'Helvetica Neue', Helvetica, Arial-Unicode, Arial, Sans-serif">from the Noun Project</text></svg>