<svg xmlns="http://www.w3.org/2000/svg" xmlns:xlink="http://www.w3.org/1999/xlink" xml:space="preserve" version="1.1" style="shape-rendering:geometricPrecision;text-rendering:geometricPrecision;image-rendering:optimizeQuality;" viewBox="0 0 2539.98 3174.975" x="0px" y="0px" fill-rule="evenodd" clip-rule="evenodd"><defs><style type="text/css">
   
    .fil0 {fill:black}
   
  </style></defs><g><path class="fil0" d="M880.18 1665.04c218.26,221.43 588.26,218.91 799.86,-10.82 22.59,-25.42 63.28,-38.18 93.08,-17.32 31.97,26.17 30.74,78.9 4.33,108.24 -261.39,285.15 -720.35,290.48 -991.43,16.23 -266.93,-270.01 -266.94,-710.59 0,-980.6 271.28,-274.43 711.71,-269.58 980.6,5.41 24.2,24.2 39.42,61.74 19.49,93.09 -24.68,36.98 -77.96,36.77 -108.24,6.49 -241.84,-208.27 -560.49,-253.82 -797.69,-9.75 -212.57,218.76 -215.02,570.9 0,789.03zm389.81 -1438.73c576.38,0 1043.68,467.3 1043.68,1043.68 0,576.38 -467.3,1043.68 -1043.68,1043.68 -576.38,0 -1043.68,-467.3 -1043.68,-1043.68 0,-576.38 467.3,-1043.68 1043.68,-1043.68zm0 100c-521.2,0 -943.68,422.48 -943.68,943.68 0,521.2 422.48,943.68 943.68,943.68 521.2,0 943.68,-422.48 943.68,-943.68 0,-521.2 -422.48,-943.68 -943.68,-943.68z"/></g><text x="0" y="2554.98" fill="#000000" font-size="5px" font-weight="bold" font-family="'Helvetica Neue', Helvetica, Arial-Unicode, Arial, Sans-serif">Created by romli ahmad</text><text x="0" y="2559.98" fill="#000000" font-size="5px" font-weight="bold" font-family="'Helvetica Neue', Helvetica, Arial-Unicode, Arial, Sans-serif">from the Noun Project</text></svg>