<svg xmlns="http://www.w3.org/2000/svg" xmlns:xlink="http://www.w3.org/1999/xlink" version="1.1" x="0px" y="0px" viewBox="0 0 512 640" style="enable-background:new 0 0 512 512;" xml:space="preserve"><g><g><g><path d="M508.203,287.039c2.344,2.43,3.797,5.735,3.797,9.375c0,3.637-1.531,6.951-3.962,9.375l-0.078,0.165     c-2.424,2.344-5.737,3.795-9.375,3.795c-3.63,0-6.945-1.538-9.375-3.882l-0.159-0.158c-2.344-2.423-3.795-5.737-3.795-9.295     c0-3.718,1.539-7.031,3.875-9.455l0.165-0.157c2.423-2.344,5.737-3.805,9.289-3.805c3.724,0,7.038,1.539,9.453,3.883     L508.203,287.039z M504.163,296.414c0-1.618-0.647-2.992-1.618-3.962c-0.962-1.051-2.422-1.61-3.96-1.61     c-1.531,0-2.905,0.56-3.875,1.61c-1.05,0.97-1.618,2.344-1.618,3.962c0,1.538,0.568,2.832,1.618,3.882     c0.97,1.049,2.344,1.617,3.875,1.617c1.538,0,2.998-0.568,3.96-1.617C503.516,299.246,504.163,297.952,504.163,296.414z"/><path d="M416.246,115.565C455.592,154.92,480,209.387,480,269.425s-24.408,114.425-63.754,153.78     c-39.355,39.354-93.735,63.754-153.776,63.754c-60.126,0-114.509-24.399-153.859-63.754     c-39.354-39.355-63.68-93.742-63.68-153.78s24.325-114.505,63.68-153.859c39.351-39.354,93.733-63.755,153.859-63.755     C322.511,51.811,376.891,76.211,416.246,115.565z M472.164,269.425c0-57.939-23.438-110.386-61.41-148.366     c-37.99-37.896-90.429-61.411-148.284-61.411c-57.943,0-110.386,23.516-148.289,61.411     c-37.977,37.98-61.494,90.427-61.494,148.366c0,57.86,23.517,110.306,61.494,148.279c37.902,37.902,90.345,61.419,148.289,61.419     c57.855,0,110.294-23.517,148.284-61.419C448.727,379.73,472.164,327.285,472.164,269.425z"/><path d="M432.327,76.377c1.855,1.128,2.503,3.472,1.452,5.334c-0.322,0.64-0.883,1.129-1.452,1.452l-14.22,8.16     c-1.861,1.129-4.205,0.489-5.335-1.373c-1.057-1.854-0.409-4.285,1.452-5.334l8.396-4.846l-8.396-4.854     c-1.861-1.05-2.509-3.473-1.452-5.327c1.13-1.862,3.474-2.509,5.335-1.38L432.327,76.377z"/><path d="M391.514,302.877v91.721c0,2.101-1.688,3.876-3.875,3.876h-50.103c-2.179,0-3.961-1.775-3.961-3.876v-81.297     c0-9.367-0.481-19.958-4.042-27.872c-3.234-7.355-9.375-12.611-20.769-12.611c-11.79,0-18.498,4.53-22.224,11.238     c-3.953,7.346-4.924,17.448-4.924,27.794v82.748c0,2.101-1.782,3.876-3.882,3.876H229.01c-2.1,0-3.875-1.775-3.875-3.876V227.646     c0-2.099,1.775-3.882,3.875-3.882h46.627c2.099,0,3.882,1.783,3.882,3.882v11.799c3.709-3.717,8.317-6.866,13.731-9.375     c8.648-4.041,19.475-6.306,32.165-6.306c22.38,0,37.5,5.335,47.601,14.875c10.181,9.612,15.105,23.192,17.204,39.836     c0.489,3.639,0.813,7.6,0.979,11.798C391.435,294.473,391.514,298.678,391.514,302.877z M383.685,390.715v-87.838     c0-4.364-0.086-8.484-0.251-12.201c-0.159-3.796-0.482-7.591-0.964-11.229c-1.862-14.867-6.139-26.909-14.789-35.069     c-8.648-8.246-22.063-12.769-42.266-12.769c-11.554,0-21.251,2.021-28.852,5.493c-7.915,3.637-13.573,8.807-16.809,14.946     c-0.647,1.294-2.02,2.02-3.394,2.106h-0.725c-2.179,0-3.963-1.783-3.963-3.961v-18.585h-38.702v159.106h40.802V311.85     c0-11.396,1.137-22.792,5.902-31.52c5.099-9.209,13.984-15.349,29.089-15.349c15.199,0,23.438,7.268,27.888,17.211     c4.197,9.375,4.767,20.928,4.767,31.108v77.414H383.685z"/><path d="M384.001,479.604c2.099,0,3.883,1.783,3.883,3.961c0,2.187-1.784,3.883-3.883,3.883h-20.359     c-2.178,0-3.883-1.696-3.883-3.883c0-2.178,1.705-3.961,3.883-3.961H384.001z"/><path d="M370.428,490.116c2.099,0,3.882,1.775,3.882,3.874c0,2.187-1.783,3.883-3.882,3.883h-43.481     c-2.178,0-3.954-1.696-3.954-3.883c0-2.099,1.776-3.874,3.954-3.874H370.428z"/><path d="M199.598,227.646v166.951c0,2.101-1.775,3.876-3.961,3.876h-58.341c-2.182,0-3.962-1.775-3.962-3.876V227.646     c0-2.099,1.78-3.882,3.962-3.882h58.341C197.822,223.765,199.598,225.548,199.598,227.646z M191.762,390.715V231.608h-50.587     v40.404v118.702H191.762z"/><path d="M199.598,173.425c0,8.973-3.637,17.212-9.453,23.193l-0.245,0.244c-5.981,5.974-14.299,9.69-23.434,9.69     c-9.13,0-17.452-3.717-23.434-9.69c-5.981-5.981-9.699-14.307-9.699-23.438c0-9.13,3.717-17.455,9.699-23.438     c5.982-5.973,14.304-9.689,23.434-9.689c9.135,0,17.452,3.717,23.434,9.689C195.881,155.97,199.598,164.295,199.598,173.425z      M184.564,191.126c4.447-4.53,7.197-10.835,7.197-17.701c0-7.031-2.832-13.336-7.438-17.938     c-4.525-4.529-10.91-7.354-17.858-7.354c-7.027,0-13.332,2.825-17.858,7.354c-4.604,4.602-7.433,10.906-7.433,17.938     c0,6.953,2.829,13.337,7.351,17.858c4.609,4.608,10.914,7.434,17.941,7.434c7.031,0,13.333-2.825,17.941-7.434L184.564,191.126z"/><path d="M128.812,26.756c0.561,2.106-0.729,4.206-2.832,4.773l-6.945,1.855c-2.02,0.568-4.206-0.647-4.771-2.746     c-0.485-2.1,0.73-4.207,2.75-4.768l7.027-1.861C126.062,23.449,128.244,24.656,128.812,26.756z"/><path d="M121.536,465.952c1.941,1.854,3.07,4.443,3.07,7.268c0,2.912-1.128,5.501-3.07,7.355     c-1.858,1.862-4.443,3.069-7.272,3.069c-2.908,0-5.496-1.207-7.351-3.069c-1.862-1.854-2.991-4.443-2.991-7.355     c0-2.824,1.128-5.413,2.991-7.268c1.854-1.862,4.442-3.069,7.351-3.069C117.093,462.883,119.678,464.09,121.536,465.952z      M116.77,473.22c0-0.646-0.245-1.285-0.727-1.775c-0.489-0.48-1.132-0.726-1.779-0.726c-0.73,0-1.373,0.245-1.779,0.726     c-0.481,0.49-0.805,1.129-0.805,1.775c0,0.734,0.324,1.373,0.805,1.784c0.406,0.481,1.049,0.805,1.779,0.805     c0.647,0,1.29-0.323,1.779-0.805C116.525,474.593,116.77,473.954,116.77,473.22z"/><path d="M119.035,43.564c0.56,2.107-0.647,4.206-2.75,4.767c-2.021,0.568-4.203-0.64-4.771-2.746l-1.775-6.787     c-0.568-2.099,0.647-4.198,2.746-4.767c2.103-0.568,4.206,0.647,4.766,2.746L119.035,43.564z"/><path d="M113.7,23.527c0.564,2.1-0.646,4.278-2.746,4.846c-2.103,0.489-4.207-0.726-4.771-2.824l-1.78-6.551     c-0.564-2.02,0.726-4.198,2.746-4.766c2.104-0.482,4.285,0.726,4.854,2.832L113.7,23.527z"/><path d="M109.336,31.932c0.564,2.1-0.647,4.199-2.746,4.846l-7.114,1.863c-2.104,0.56-4.202-0.647-4.767-2.755     c-0.564-2.099,0.643-4.198,2.746-4.767l7.114-1.934C106.668,28.618,108.768,29.912,109.336,31.932z"/><polygon points="22.384,253.988 24.488,261.021 17.054,263.205 14.951,256.254    "/><polygon points="17.054,263.205 19.153,270.229 11.719,272.494 9.621,265.463    "/><polygon points="12.848,249.223 14.951,256.254 7.517,258.432 5.414,251.486    "/><polygon points="7.434,258.432 9.538,265.463 2.1,267.728 0,260.696    "/></g></g></g><text x="0" y="527" fill="#000000" font-size="5px" font-weight="bold" font-family="'Helvetica Neue', Helvetica, Arial-Unicode, Arial, Sans-serif">Created by ibrandify</text><text x="0" y="532" fill="#000000" font-size="5px" font-weight="bold" font-family="'Helvetica Neue', Helvetica, Arial-Unicode, Arial, Sans-serif">from the Noun Project</text></svg>